<svg id="visual" viewBox="0 0 960 540" width="960" height="540" xmlns="http://www.w3.org/2000/svg" xmlns:xlink="http://www.w3.org/1999/xlink" version="1.1"><path d="M0 82L22.8 68.3C45.7 54.7 91.3 27.3 137 14.7C182.7 2 228.3 4 274 7.8C319.7 11.7 365.3 17.3 411.2 19.2C457 21 503 19 548.8 30.7C594.7 42.3 640.3 67.7 686 70.3C731.7 73 777.3 53 823 44C868.7 35 914.3 37 937.2 38L960 39L960 0L937.2 0C914.3 0 868.7 0 823 0C777.3 0 731.7 0 686 0C640.3 0 594.7 0 548.8 0C503 0 457 0 411.2 0C365.3 0 319.7 0 274 0C228.3 0 182.7 0 137 0C91.3 0 45.7 0 22.8 0L0 0Z" fill="#eff1f3"></path><path d="M0 217L22.8 235C45.7 253 91.3 289 137 289.8C182.7 290.7 228.3 256.3 274 211.3C319.7 166.3 365.3 110.7 411.2 91C457 71.3 503 87.7 548.8 105.7C594.7 123.7 640.3 143.3 686 142.3C731.7 141.3 777.3 119.7 823 115.2C868.7 110.7 914.3 123.3 937.2 129.7L960 136L960 37L937.2 36C914.3 35 868.7 33 823 42C777.3 51 731.7 71 686 68.3C640.3 65.7 594.7 40.3 548.8 28.7C503 17 457 19 411.2 17.2C365.3 15.3 319.7 9.7 274 6.2C228.3 2.7 182.7 1.3 137 14C91.3 26.7 45.7 53.3 22.8 66.7L0 80Z" fill="#cee0eb"></path><path d="M0 293L22.8 302C45.7 311 91.3 329 137 325.3C182.7 321.7 228.3 296.3 274 264.8C319.7 233.3 365.3 195.7 411.2 184.8C457 174 503 190 548.8 209.7C594.7 229.3 640.3 252.7 686 234.7C731.7 216.7 777.3 157.3 823 141.2C868.7 125 914.3 152 937.2 165.5L960 179L960 134L937.2 127.7C914.3 121.3 868.7 108.7 823 113.2C777.3 117.7 731.7 139.3 686 140.3C640.3 141.3 594.7 121.7 548.8 103.7C503 85.7 457 69.3 411.2 89C365.3 108.7 319.7 164.3 274 209.3C228.3 254.3 182.7 288.7 137 287.8C91.3 287 45.7 251 22.8 233L0 215Z" fill="#a9d1df"></path><path d="M0 347L22.8 356C45.7 365 91.3 383 137 376.7C182.7 370.3 228.3 339.7 274 300C319.7 260.3 365.3 211.7 411.2 208C457 204.3 503 245.7 548.8 269C594.7 292.3 640.3 297.7 686 268.8C731.7 240 777.3 177 823 164.5C868.7 152 914.3 190 937.2 209L960 228L960 177L937.2 163.5C914.3 150 868.7 123 823 139.2C777.3 155.3 731.7 214.7 686 232.7C640.3 250.7 594.7 227.3 548.8 207.7C503 188 457 172 411.2 182.8C365.3 193.7 319.7 231.3 274 262.8C228.3 294.3 182.7 319.7 137 323.3C91.3 327 45.7 309 22.8 300L0 291Z" fill="#80c3cd"></path><path d="M0 433L22.8 430.3C45.7 427.7 91.3 422.3 137 419.7C182.7 417 228.3 417 274 407C319.7 397 365.3 377 411.2 375.2C457 373.3 503 389.7 548.8 409.5C594.7 429.3 640.3 452.7 686 453.5C731.7 454.3 777.3 432.7 823 423.7C868.7 414.7 914.3 418.3 937.2 420.2L960 422L960 226L937.2 207C914.3 188 868.7 150 823 162.5C777.3 175 731.7 238 686 266.8C640.3 295.7 594.7 290.3 548.8 267C503 243.7 457 202.3 411.2 206C365.3 209.7 319.7 258.3 274 298C228.3 337.7 182.7 368.3 137 374.7C91.3 381 45.7 363 22.8 354L0 345Z" fill="#56b4b5"></path><path d="M0 482L22.8 485.5C45.7 489 91.3 496 137 498.7C182.7 501.3 228.3 499.7 274 485.3C319.7 471 365.3 444 411.2 431.3C457 418.7 503 420.3 548.8 438.3C594.7 456.3 640.3 490.7 686 506C731.7 521.3 777.3 517.7 823 514C868.7 510.3 914.3 506.7 937.2 504.8L960 503L960 420L937.2 418.2C914.3 416.3 868.7 412.7 823 421.7C777.3 430.7 731.7 452.3 686 451.5C640.3 450.7 594.7 427.3 548.8 407.5C503 387.7 457 371.3 411.2 373.2C365.3 375 319.7 395 274 405C228.3 415 182.7 415 137 417.7C91.3 420.3 45.7 425.7 22.8 428.3L0 431Z" fill="#2da596"></path><path d="M0 541L22.8 541C45.7 541 91.3 541 137 541C182.7 541 228.3 541 274 541C319.7 541 365.3 541 411.2 541C457 541 503 541 548.8 541C594.7 541 640.3 541 686 541C731.7 541 777.3 541 823 541C868.7 541 914.3 541 937.2 541L960 541L960 501L937.2 502.8C914.3 504.7 868.7 508.3 823 512C777.3 515.7 731.7 519.3 686 504C640.3 488.7 594.7 454.3 548.8 436.3C503 418.3 457 416.7 411.2 429.3C365.3 442 319.7 469 274 483.3C228.3 497.7 182.7 499.3 137 496.7C91.3 494 45.7 487 22.8 483.5L0 480Z" fill="#009473"></path></svg>