<svg id="visual" viewBox="0 0 960 540" width="960" height="540" xmlns="http://www.w3.org/2000/svg" xmlns:xlink="http://www.w3.org/1999/xlink" version="1.1"><path d="M0 82L22.8 76.7C45.7 71.3 91.3 60.7 137 60.7C182.7 60.7 228.3 71.3 274 73C319.7 74.7 365.3 67.3 411.2 60.2C457 53 503 46 548.8 40.7C594.7 35.3 640.3 31.7 686 33.5C731.7 35.3 777.3 42.7 823 49.8C868.7 57 914.3 64 937.2 67.5L960 71L960 0L937.2 0C914.3 0 868.7 0 823 0C777.3 0 731.7 0 686 0C640.3 0 594.7 0 548.8 0C503 0 457 0 411.2 0C365.3 0 319.7 0 274 0C228.3 0 182.7 0 137 0C91.3 0 45.7 0 22.8 0L0 0Z" fill="#eff1f3"></path><path d="M0 190L22.8 192.7C45.7 195.3 91.3 200.7 137 191.7C182.7 182.7 228.3 159.3 274 143.2C319.7 127 365.3 118 411.2 145.8C457 173.7 503 238.3 548.8 233.8C594.7 229.3 640.3 155.7 686 124.2C731.7 92.7 777.3 103.3 823 108.7C868.7 114 914.3 114 937.2 114L960 114L960 69L937.2 65.5C914.3 62 868.7 55 823 47.8C777.3 40.7 731.7 33.3 686 31.5C640.3 29.7 594.7 33.3 548.8 38.7C503 44 457 51 411.2 58.2C365.3 65.3 319.7 72.7 274 71C228.3 69.3 182.7 58.7 137 58.7C91.3 58.7 45.7 69.3 22.8 74.7L0 80Z" fill="#ced3d7"></path><path d="M0 255L22.8 246.8C45.7 238.7 91.3 222.3 137 220.5C182.7 218.7 228.3 231.3 274 215.2C319.7 199 365.3 154 411.2 175.7C457 197.3 503 285.7 548.8 299.2C594.7 312.7 640.3 251.3 686 222.5C731.7 193.7 777.3 197.3 823 199.2C868.7 201 914.3 201 937.2 201L960 201L960 112L937.2 112C914.3 112 868.7 112 823 106.7C777.3 101.3 731.7 90.7 686 122.2C640.3 153.7 594.7 227.3 548.8 231.8C503 236.3 457 171.7 411.2 143.8C365.3 116 319.7 125 274 141.2C228.3 157.3 182.7 180.7 137 189.7C91.3 198.7 45.7 193.3 22.8 190.7L0 188Z" fill="#aeb5bb"></path><path d="M0 271L22.8 275.5C45.7 280 91.3 289 137 284.5C182.7 280 228.3 262 274 242.2C319.7 222.3 365.3 200.7 411.2 234C457 267.3 503 355.7 548.8 362.8C594.7 370 640.3 296 686 260.8C731.7 225.7 777.3 229.3 823 236.7C868.7 244 914.3 255 937.2 260.5L960 266L960 199L937.2 199C914.3 199 868.7 199 823 197.2C777.3 195.3 731.7 191.7 686 220.5C640.3 249.3 594.7 310.7 548.8 297.2C503 283.7 457 195.3 411.2 173.7C365.3 152 319.7 197 274 213.2C228.3 229.3 182.7 216.7 137 218.5C91.3 220.3 45.7 236.7 22.8 244.8L0 253Z" fill="#8f99a0"></path><path d="M0 363L22.8 362C45.7 361 91.3 359 137 370.7C182.7 382.3 228.3 407.7 274 425.7C319.7 443.7 365.3 454.3 411.2 467C457 479.7 503 494.3 548.8 494.3C594.7 494.3 640.3 479.7 686 461.7C731.7 443.7 777.3 422.3 823 408.8C868.7 395.3 914.3 389.7 937.2 386.8L960 384L960 264L937.2 258.5C914.3 253 868.7 242 823 234.7C777.3 227.3 731.7 223.7 686 258.8C640.3 294 594.7 368 548.8 360.8C503 353.7 457 265.3 411.2 232C365.3 198.7 319.7 220.3 274 240.2C228.3 260 182.7 278 137 282.5C91.3 287 45.7 278 22.8 273.5L0 269Z" fill="#717e86"></path><path d="M0 449L22.8 443.7C45.7 438.3 91.3 427.7 137 439.3C182.7 451 228.3 485 274 505.7C319.7 526.3 365.3 533.7 411.2 535.5C457 537.3 503 533.7 548.8 522.8C594.7 512 640.3 494 686 489.5C731.7 485 777.3 494 823 487.7C868.7 481.3 914.3 459.7 937.2 448.8L960 438L960 382L937.2 384.8C914.3 387.7 868.7 393.3 823 406.8C777.3 420.3 731.7 441.7 686 459.7C640.3 477.7 594.7 492.3 548.8 492.3C503 492.3 457 477.7 411.2 465C365.3 452.3 319.7 441.7 274 423.7C228.3 405.7 182.7 380.3 137 368.7C91.3 357 45.7 359 22.8 360L0 361Z" fill="#53636c"></path><path d="M0 541L22.8 541C45.7 541 91.3 541 137 541C182.7 541 228.3 541 274 541C319.7 541 365.3 541 411.2 541C457 541 503 541 548.8 541C594.7 541 640.3 541 686 541C731.7 541 777.3 541 823 541C868.7 541 914.3 541 937.2 541L960 541L960 436L937.2 446.8C914.3 457.7 868.7 479.3 823 485.7C777.3 492 731.7 483 686 487.5C640.3 492 594.7 510 548.8 520.8C503 531.7 457 535.3 411.2 533.5C365.3 531.7 319.7 524.3 274 503.7C228.3 483 182.7 449 137 437.3C91.3 425.7 45.7 436.3 22.8 441.7L0 447Z" fill="#374a53"></path></svg>