<svg id="visual" viewBox="0 0 960 540" width="960" height="540" xmlns="http://www.w3.org/2000/svg" xmlns:xlink="http://www.w3.org/1999/xlink" version="1.1"><path d="M0 104L22.8 104C45.7 104 91.3 104 137 87.7C182.7 71.3 228.3 38.7 274 24.2C319.7 9.7 365.3 13.3 411.2 19.7C457 26 503 35 548.8 36C594.7 37 640.3 30 686 32.7C731.7 35.3 777.3 47.7 823 57.5C868.7 67.3 914.3 74.7 937.2 78.3L960 82L960 0L937.2 0C914.3 0 868.7 0 823 0C777.3 0 731.7 0 686 0C640.3 0 594.7 0 548.8 0C503 0 457 0 411.2 0C365.3 0 319.7 0 274 0C228.3 0 182.7 0 137 0C91.3 0 45.7 0 22.8 0L0 0Z" fill="#eff1f3"></path><path d="M0 293L22.8 272.2C45.7 251.3 91.3 209.7 137 163.7C182.7 117.7 228.3 67.3 274 81.8C319.7 96.3 365.3 175.7 411.2 189.2C457 202.7 503 150.3 548.8 145.8C594.7 141.3 640.3 184.7 686 202.7C731.7 220.7 777.3 213.3 823 189.8C868.7 166.3 914.3 126.7 937.2 106.8L960 87L960 80L937.2 76.3C914.3 72.7 868.7 65.3 823 55.5C777.3 45.7 731.7 33.3 686 30.7C640.3 28 594.7 35 548.8 34C503 33 457 24 411.2 17.7C365.3 11.3 319.7 7.7 274 22.2C228.3 36.7 182.7 69.3 137 85.7C91.3 102 45.7 102 22.8 102L0 102Z" fill="#d7e0f9"></path><path d="M0 330L22.8 315.7C45.7 301.3 91.3 272.7 137 229.5C182.7 186.3 228.3 128.7 274 135C319.7 141.3 365.3 211.7 411.2 222.5C457 233.3 503 184.7 548.8 188.2C594.7 191.7 640.3 247.3 686 262.7C731.7 278 777.3 253 823 227.8C868.7 202.7 914.3 177.3 937.2 164.7L960 152L960 85L937.2 104.8C914.3 124.7 868.7 164.3 823 187.8C777.3 211.3 731.7 218.7 686 200.7C640.3 182.7 594.7 139.3 548.8 143.8C503 148.3 457 200.7 411.2 187.2C365.3 173.7 319.7 94.3 274 79.8C228.3 65.3 182.7 115.7 137 161.7C91.3 207.7 45.7 249.3 22.8 270.2L0 291Z" fill="#d5caf9"></path><path d="M0 374L22.8 366.7C45.7 359.3 91.3 344.7 137 305.8C182.7 267 228.3 204 274 206.8C319.7 209.7 365.3 278.3 411.2 292.8C457 307.3 503 267.7 548.8 276.7C594.7 285.7 640.3 343.3 686 359.5C731.7 375.7 777.3 350.3 823 315.2C868.7 280 914.3 235 937.2 212.5L960 190L960 150L937.2 162.7C914.3 175.3 868.7 200.7 823 225.8C777.3 251 731.7 276 686 260.7C640.3 245.3 594.7 189.7 548.8 186.2C503 182.7 457 231.3 411.2 220.5C365.3 209.7 319.7 139.3 274 133C228.3 126.7 182.7 184.3 137 227.5C91.3 270.7 45.7 299.3 22.8 313.7L0 328Z" fill="#e4afeb"></path><path d="M0 455L22.8 440.5C45.7 426 91.3 397 137 347.5C182.7 298 228.3 228 274 238.8C319.7 249.7 365.3 341.3 411.2 361C457 380.7 503 328.3 548.8 328.3C594.7 328.3 640.3 380.7 686 389.7C731.7 398.7 777.3 364.3 823 332C868.7 299.7 914.3 269.3 937.2 254.2L960 239L960 188L937.2 210.5C914.3 233 868.7 278 823 313.2C777.3 348.3 731.7 373.7 686 357.5C640.3 341.3 594.7 283.7 548.8 274.7C503 265.7 457 305.3 411.2 290.8C365.3 276.3 319.7 207.7 274 204.8C228.3 202 182.7 265 137 303.8C91.3 342.7 45.7 357.3 22.8 364.7L0 372Z" fill="#f88fca"></path><path d="M0 514L22.8 514C45.7 514 91.3 514 137 503.2C182.7 492.3 228.3 470.7 274 458C319.7 445.3 365.3 441.7 411.2 442.7C457 443.7 503 449.3 548.8 453C594.7 456.7 640.3 458.3 686 457.3C731.7 456.3 777.3 452.7 823 452.7C868.7 452.7 914.3 456.3 937.2 458.2L960 460L960 237L937.2 252.2C914.3 267.3 868.7 297.7 823 330C777.3 362.3 731.7 396.7 686 387.7C640.3 378.7 594.7 326.3 548.8 326.3C503 326.3 457 378.7 411.2 359C365.3 339.3 319.7 247.7 274 236.8C228.3 226 182.7 296 137 345.5C91.3 395 45.7 424 22.8 438.5L0 453Z" fill="#ff6f97"></path><path d="M0 541L22.8 541C45.7 541 91.3 541 137 541C182.7 541 228.3 541 274 541C319.7 541 365.3 541 411.2 541C457 541 503 541 548.8 541C594.7 541 640.3 541 686 541C731.7 541 777.3 541 823 541C868.7 541 914.3 541 937.2 541L960 541L960 458L937.2 456.2C914.3 454.3 868.7 450.7 823 450.7C777.3 450.7 731.7 454.3 686 455.3C640.3 456.3 594.7 454.7 548.8 451C503 447.3 457 441.7 411.2 440.7C365.3 439.7 319.7 443.3 274 456C228.3 468.7 182.7 490.3 137 501.2C91.3 512 45.7 512 22.8 512L0 512Z" fill="#ff5858"></path></svg>