<svg id="visual" viewBox="0 0 4000 3000" width="4000" height="3000" xmlns="http://www.w3.org/2000/svg" xmlns:xlink="http://www.w3.org/1999/xlink" version="1.1"><path d="M0 631L60.7 621C121.3 611 242.7 591 363.8 556C485 521 606 471 727.2 456C848.3 441 969.7 461 1091 491C1212.3 521 1333.7 561 1454.8 616C1576 671 1697 741 1818.2 756C1939.3 771 2060.7 731 2181.8 736C2303 741 2424 791 2545.2 811C2666.3 831 2787.7 821 2909 806C3030.3 791 3151.7 771 3272.8 731C3394 691 3515 631 3636.2 586C3757.3 541 3878.7 511 3939.3 496L4000 481L4000 0L3939.3 0C3878.7 0 3757.3 0 3636.2 0C3515 0 3394 0 3272.8 0C3151.7 0 3030.3 0 2909 0C2787.7 0 2666.3 0 2545.2 0C2424 0 2303 0 2181.8 0C2060.7 0 1939.3 0 1818.2 0C1697 0 1576 0 1454.8 0C1333.7 0 1212.3 0 1091 0C969.7 0 848.3 0 727.2 0C606 0 485 0 363.8 0C242.7 0 121.3 0 60.7 0L0 0Z" fill="#0f0f10"></path><path d="M0 871L60.7 856C121.3 841 242.7 811 363.8 776C485 741 606 701 727.2 706C848.3 711 969.7 761 1091 791C1212.3 821 1333.7 831 1454.8 906C1576 981 1697 1121 1818.2 1186C1939.3 1251 2060.7 1241 2181.8 1211C2303 1181 2424 1131 2545.2 1136C2666.3 1141 2787.7 1201 2909 1231C3030.3 1261 3151.7 1261 3272.8 1226C3394 1191 3515 1121 3636.2 1076C3757.3 1031 3878.7 1011 3939.3 1001L4000 991L4000 479L3939.3 494C3878.7 509 3757.3 539 3636.2 584C3515 629 3394 689 3272.8 729C3151.7 769 3030.3 789 2909 804C2787.7 819 2666.3 829 2545.2 809C2424 789 2303 739 2181.8 734C2060.7 729 1939.3 769 1818.2 754C1697 739 1576 669 1454.8 614C1333.7 559 1212.3 519 1091 489C969.7 459 848.3 439 727.2 454C606 469 485 519 363.8 554C242.7 589 121.3 609 60.7 619L0 629Z" fill="#0c0c0d"></path><path d="M0 1321L60.7 1371C121.3 1421 242.7 1521 363.8 1571C485 1621 606 1621 727.2 1681C848.3 1741 969.7 1861 1091 1926C1212.3 1991 1333.7 2001 1454.8 1961C1576 1921 1697 1831 1818.2 1846C1939.3 1861 2060.7 1981 2181.8 2046C2303 2111 2424 2121 2545.2 2076C2666.3 2031 2787.7 1931 2909 1971C3030.3 2011 3151.7 2191 3272.8 2211C3394 2231 3515 2091 3636.2 1941C3757.3 1791 3878.7 1631 3939.3 1551L4000 1471L4000 989L3939.3 999C3878.7 1009 3757.3 1029 3636.2 1074C3515 1119 3394 1189 3272.8 1224C3151.7 1259 3030.3 1259 2909 1229C2787.7 1199 2666.3 1139 2545.2 1134C2424 1129 2303 1179 2181.8 1209C2060.7 1239 1939.3 1249 1818.2 1184C1697 1119 1576 979 1454.8 904C1333.7 829 1212.3 819 1091 789C969.7 759 848.3 709 727.2 704C606 699 485 739 363.8 774C242.7 809 121.3 839 60.7 854L0 869Z" fill="#080809"></path><path d="M0 2551L60.7 2541C121.3 2531 242.7 2511 363.8 2521C485 2531 606 2571 727.2 2596C848.3 2621 969.7 2631 1091 2626C1212.3 2621 1333.7 2601 1454.8 2626C1576 2651 1697 2721 1818.2 2761C1939.3 2801 2060.7 2811 2181.8 2791C2303 2771 2424 2721 2545.2 2711C2666.3 2701 2787.7 2731 2909 2751C3030.3 2771 3151.7 2781 3272.8 2771C3394 2761 3515 2731 3636.2 2691C3757.3 2651 3878.7 2601 3939.3 2576L4000 2551L4000 1469L3939.3 1549C3878.7 1629 3757.3 1789 3636.2 1939C3515 2089 3394 2229 3272.8 2209C3151.7 2189 3030.3 2009 2909 1969C2787.7 1929 2666.3 2029 2545.2 2074C2424 2119 2303 2109 2181.8 2044C2060.7 1979 1939.3 1859 1818.2 1844C1697 1829 1576 1919 1454.8 1959C1333.7 1999 1212.3 1989 1091 1924C969.7 1859 848.3 1739 727.2 1679C606 1619 485 1619 363.8 1569C242.7 1519 121.3 1419 60.7 1369L0 1319Z" fill="#040405"></path><path d="M0 3001L60.7 3001C121.3 3001 242.7 3001 363.8 3001C485 3001 606 3001 727.2 3001C848.3 3001 969.7 3001 1091 3001C1212.3 3001 1333.7 3001 1454.8 3001C1576 3001 1697 3001 1818.2 3001C1939.3 3001 2060.7 3001 2181.8 3001C2303 3001 2424 3001 2545.2 3001C2666.3 3001 2787.7 3001 2909 3001C3030.3 3001 3151.7 3001 3272.8 3001C3394 3001 3515 3001 3636.2 3001C3757.3 3001 3878.7 3001 3939.3 3001L4000 3001L4000 2549L3939.3 2574C3878.7 2599 3757.3 2649 3636.2 2689C3515 2729 3394 2759 3272.8 2769C3151.7 2779 3030.3 2769 2909 2749C2787.7 2729 2666.3 2699 2545.2 2709C2424 2719 2303 2769 2181.8 2789C2060.7 2809 1939.3 2799 1818.2 2759C1697 2719 1576 2649 1454.8 2624C1333.7 2599 1212.3 2619 1091 2624C969.7 2629 848.3 2619 727.2 2594C606 2569 485 2529 363.8 2519C242.7 2509 121.3 2529 60.7 2539L0 2549Z" fill="#000000"></path></svg>