<svg id="visual" viewBox="0 0 3000 2000" width="3000" height="2000" xmlns="http://www.w3.org/2000/svg" xmlns:xlink="http://www.w3.org/1999/xlink" version="1.1"><path d="M0 121L100 121C200 121 400 121 600 104.3C800 87.7 1000 54.3 1200 47.7C1400 41 1600 61 1800 77.7C2000 94.3 2200 107.7 2400 114.3C2600 121 2800 121 2900 121L3000 121L3000 0L2900 0C2800 0 2600 0 2400 0C2200 0 2000 0 1800 0C1600 0 1400 0 1200 0C1000 0 800 0 600 0C400 0 200 0 100 0L0 0Z" fill="#494e56"></path><path d="M0 161L100 174.3C200 187.7 400 214.3 600 224.3C800 234.3 1000 227.7 1200 227.7C1400 227.7 1600 234.3 1800 244.3C2000 254.3 2200 267.7 2400 264.3C2600 261 2800 241 2900 231L3000 221L3000 119L2900 119C2800 119 2600 119 2400 112.3C2200 105.7 2000 92.3 1800 75.7C1600 59 1400 39 1200 45.7C1000 52.3 800 85.7 600 102.3C400 119 200 119 100 119L0 119Z" fill="#4e525a"></path><path d="M0 481L100 531C200 581 400 681 600 704.3C800 727.7 1000 674.3 1200 637.7C1400 601 1600 581 1800 627.7C2000 674.3 2200 787.7 2400 807.7C2600 827.7 2800 754.3 2900 717.7L3000 681L3000 219L2900 229C2800 239 2600 259 2400 262.3C2200 265.7 2000 252.3 1800 242.3C1600 232.3 1400 225.7 1200 225.7C1000 225.7 800 232.3 600 222.3C400 212.3 200 185.7 100 172.3L0 159Z" fill="#53575f"></path><path d="M0 621L100 664.3C200 707.7 400 794.3 600 797.7C800 801 1000 721 1200 684.3C1400 647.7 1600 654.3 1800 731C2000 807.7 2200 954.3 2400 977.7C2600 1001 2800 901 2900 851L3000 801L3000 679L2900 715.7C2800 752.3 2600 825.7 2400 805.7C2200 785.7 2000 672.3 1800 625.7C1600 579 1400 599 1200 635.7C1000 672.3 800 725.7 600 702.3C400 679 200 579 100 529L0 479Z" fill="#585b64"></path><path d="M0 641L100 701C200 761 400 881 600 884.3C800 887.7 1000 774.3 1200 744.3C1400 714.3 1600 767.7 1800 861C2000 954.3 2200 1087.7 2400 1107.7C2600 1127.7 2800 1034.3 2900 987.7L3000 941L3000 799L2900 849C2800 899 2600 999 2400 975.7C2200 952.3 2000 805.7 1800 729C1600 652.3 1400 645.7 1200 682.3C1000 719 800 799 600 795.7C400 792.3 200 705.7 100 662.3L0 619Z" fill="#5c5f68"></path><path d="M0 721L100 791C200 861 400 1001 600 1011C800 1021 1000 901 1200 847.7C1400 794.3 1600 807.7 1800 891C2000 974.3 2200 1127.7 2400 1167.7C2600 1207.7 2800 1134.3 2900 1097.7L3000 1061L3000 939L2900 985.7C2800 1032.3 2600 1125.7 2400 1105.7C2200 1085.7 2000 952.3 1800 859C1600 765.7 1400 712.3 1200 742.3C1000 772.3 800 885.7 600 882.3C400 879 200 759 100 699L0 639Z" fill="#61646d"></path><path d="M0 941L100 984.3C200 1027.7 400 1114.3 600 1111C800 1107.7 1000 1014.3 1200 974.3C1400 934.3 1600 947.7 1800 1017.7C2000 1087.7 2200 1214.3 2400 1261C2600 1307.7 2800 1274.3 2900 1257.7L3000 1241L3000 1059L2900 1095.7C2800 1132.3 2600 1205.7 2400 1165.7C2200 1125.7 2000 972.3 1800 889C1600 805.7 1400 792.3 1200 845.7C1000 899 800 1019 600 1009C400 999 200 859 100 789L0 719Z" fill="#676871"></path><path d="M0 1101L100 1131C200 1161 400 1221 600 1234.3C800 1247.7 1000 1214.3 1200 1197.7C1400 1181 1600 1181 1800 1217.7C2000 1254.3 2200 1327.7 2400 1384.3C2600 1441 2800 1481 2900 1501L3000 1521L3000 1239L2900 1255.7C2800 1272.3 2600 1305.7 2400 1259C2200 1212.3 2000 1085.7 1800 1015.7C1600 945.7 1400 932.3 1200 972.3C1000 1012.3 800 1105.7 600 1109C400 1112.3 200 1025.7 100 982.3L0 939Z" fill="#6c6d76"></path><path d="M0 1221L100 1231C200 1241 400 1261 600 1274.3C800 1287.7 1000 1294.3 1200 1294.3C1400 1294.3 1600 1287.7 1800 1321C2000 1354.3 2200 1427.7 2400 1491C2600 1554.3 2800 1607.7 2900 1634.3L3000 1661L3000 1519L2900 1499C2800 1479 2600 1439 2400 1382.3C2200 1325.7 2000 1252.3 1800 1215.7C1600 1179 1400 1179 1200 1195.7C1000 1212.3 800 1245.7 600 1232.3C400 1219 200 1159 100 1129L0 1099Z" fill="#71727b"></path><path d="M0 1421L100 1431C200 1441 400 1461 600 1471C800 1481 1000 1481 1200 1491C1400 1501 1600 1521 1800 1527.7C2000 1534.3 2200 1527.7 2400 1554.3C2600 1581 2800 1641 2900 1671L3000 1701L3000 1659L2900 1632.3C2800 1605.7 2600 1552.3 2400 1489C2200 1425.7 2000 1352.3 1800 1319C1600 1285.7 1400 1292.3 1200 1292.3C1000 1292.3 800 1285.7 600 1272.3C400 1259 200 1239 100 1229L0 1219Z" fill="#76767f"></path><path d="M0 1761L100 1764.3C200 1767.7 400 1774.3 600 1761C800 1747.7 1000 1714.3 1200 1737.7C1400 1761 1600 1841 1800 1891C2000 1941 2200 1961 2400 1954.3C2600 1947.7 2800 1914.3 2900 1897.7L3000 1881L3000 1699L2900 1669C2800 1639 2600 1579 2400 1552.3C2200 1525.7 2000 1532.3 1800 1525.7C1600 1519 1400 1499 1200 1489C1000 1479 800 1479 600 1469C400 1459 200 1439 100 1429L0 1419Z" fill="#7b7b84"></path><path d="M0 2001L100 2001C200 2001 400 2001 600 2001C800 2001 1000 2001 1200 2001C1400 2001 1600 2001 1800 2001C2000 2001 2200 2001 2400 2001C2600 2001 2800 2001 2900 2001L3000 2001L3000 1879L2900 1895.7C2800 1912.3 2600 1945.7 2400 1952.3C2200 1959 2000 1939 1800 1889C1600 1839 1400 1759 1200 1735.7C1000 1712.3 800 1745.7 600 1759C400 1772.3 200 1765.7 100 1762.3L0 1759Z" fill="#808089"></path></svg>